<?xml version="1.0" encoding="UTF-8" standalone="no"?>
<!DOCTYPE svg PUBLIC "-//W3C//DTD SVG 1.1//EN"
 "http://www.w3.org/Graphics/SVG/1.1/DTD/svg11.dtd">
<!-- Generated by graphviz version 2.42.4 (0)
 -->
<!-- Pages: 1 -->
<svg width="364pt" height="152pt"
 viewBox="0.00 0.00 364.39 152.00" xmlns="http://www.w3.org/2000/svg" xmlns:xlink="http://www.w3.org/1999/xlink">
<g id="graph0" class="graph" transform="scale(1 1) rotate(0) translate(4 148)">
<polygon fill="white" stroke="transparent" points="-4,4 -4,-148 360.39,-148 360.39,4 -4,4"/>
<!-- 4701001471888944584 -->
<g id="node1" class="node">
<title>4701001471888944584</title>
<ellipse fill="none" stroke="black" cx="207.95" cy="-72" rx="27.9" ry="18"/>
<text text-anchor="middle" x="207.95" y="-68.3" font-family="Helvetica,sans-Serif" font-size="14.00">both</text>
</g>
<!-- 2346020520087362777 -->
<g id="node2" class="node">
<title>2346020520087362777</title>
<ellipse fill="none" stroke="black" cx="314.14" cy="-99" rx="42.49" ry="18"/>
<text text-anchor="middle" x="314.14" y="-95.3" font-family="Helvetica,sans-Serif" font-size="14.00">all three</text>
</g>
<!-- 4701001471888944584&#45;&gt;2346020520087362777 -->
<g id="edge1" class="edge">
<title>4701001471888944584&#45;&gt;2346020520087362777</title>
<path fill="none" stroke="black" d="M234.17,-78.54C244.23,-81.14 256.14,-84.23 267.61,-87.2"/>
<polygon fill="black" stroke="black" points="266.96,-90.65 277.52,-89.77 268.72,-83.87 266.96,-90.65"/>
</g>
<!-- &#45;7204304565147757914 -->
<g id="node3" class="node">
<title>&#45;7204304565147757914</title>
<ellipse fill="none" stroke="black" cx="207.95" cy="-126" rx="27" ry="18"/>
<text text-anchor="middle" x="207.95" y="-122.3" font-family="Helvetica,sans-Serif" font-size="14.00">hen</text>
</g>
<!-- &#45;7204304565147757914&#45;&gt;2346020520087362777 -->
<g id="edge2" class="edge">
<title>&#45;7204304565147757914&#45;&gt;2346020520087362777</title>
<path fill="none" stroke="black" d="M233.38,-119.67C243.62,-117.02 255.88,-113.84 267.67,-110.78"/>
<polygon fill="black" stroke="black" points="268.61,-114.15 277.41,-108.26 266.86,-107.38 268.61,-114.15"/>
</g>
<!-- 1225669648693725118 -->
<g id="node4" class="node">
<title>1225669648693725118</title>
<ellipse fill="none" stroke="black" cx="117" cy="-72" rx="27" ry="18"/>
<text text-anchor="middle" x="117" y="-68.3" font-family="Helvetica,sans-Serif" font-size="14.00">cow</text>
</g>
<!-- 1225669648693725118&#45;&gt;4701001471888944584 -->
<g id="edge3" class="edge">
<title>1225669648693725118&#45;&gt;4701001471888944584</title>
<path fill="none" stroke="black" d="M144.21,-72C152.15,-72 161.03,-72 169.56,-72"/>
<polygon fill="black" stroke="black" points="169.69,-75.5 179.69,-72 169.69,-68.5 169.69,-75.5"/>
</g>
<!-- &#45;1637079148933293772 -->
<g id="node5" class="node">
<title>&#45;1637079148933293772</title>
<ellipse fill="none" stroke="black" cx="117" cy="-18" rx="27" ry="18"/>
<text text-anchor="middle" x="117" y="-14.3" font-family="Helvetica,sans-Serif" font-size="14.00">pig</text>
</g>
<!-- &#45;1637079148933293772&#45;&gt;4701001471888944584 -->
<g id="edge4" class="edge">
<title>&#45;1637079148933293772&#45;&gt;4701001471888944584</title>
<path fill="none" stroke="black" d="M137.74,-29.98C149.63,-37.2 164.99,-46.53 178.21,-54.55"/>
<polygon fill="black" stroke="black" points="176.59,-57.66 186.95,-59.86 180.22,-51.68 176.59,-57.66"/>
</g>
<!-- &#45;4768043400904668267 -->
<g id="node6" class="node">
<title>&#45;4768043400904668267</title>
<polygon fill="none" stroke="black" points="132,-138 90,-138 90,-114 132,-114 144,-126 132,-138"/>
<text text-anchor="middle" x="117" y="-122.3" font-family="Helvetica,sans-Serif" font-size="14.00">speak</text>
</g>
<!-- &#45;4768043400904668267&#45;&gt;&#45;7204304565147757914 -->
<g id="edge5" class="edge">
<title>&#45;4768043400904668267&#45;&gt;&#45;7204304565147757914</title>
<path fill="none" stroke="black" d="M144.21,-126C152.53,-126 161.89,-126 170.78,-126"/>
<polygon fill="black" stroke="black" points="170.93,-129.5 180.93,-126 170.93,-122.5 170.93,-129.5"/>
</g>
<!-- &#45;7148563774573405822 -->
<g id="node7" class="node">
<title>&#45;7148563774573405822</title>
<polygon fill="none" stroke="black" points="42,-84 0,-84 0,-60 42,-60 54,-72 42,-84"/>
<text text-anchor="middle" x="27" y="-68.3" font-family="Helvetica,sans-Serif" font-size="14.00">speak</text>
</g>
<!-- &#45;7148563774573405822&#45;&gt;1225669648693725118 -->
<g id="edge6" class="edge">
<title>&#45;7148563774573405822&#45;&gt;1225669648693725118</title>
<path fill="none" stroke="black" d="M54.4,-72C62.39,-72 71.31,-72 79.82,-72"/>
<polygon fill="black" stroke="black" points="79.92,-75.5 89.92,-72 79.92,-68.5 79.92,-75.5"/>
</g>
<!-- &#45;5410179388997738017 -->
<g id="node8" class="node">
<title>&#45;5410179388997738017</title>
<polygon fill="none" stroke="black" points="42,-30 0,-30 0,-6 42,-6 54,-18 42,-30"/>
<text text-anchor="middle" x="27" y="-14.3" font-family="Helvetica,sans-Serif" font-size="14.00">speak</text>
</g>
<!-- &#45;5410179388997738017&#45;&gt;&#45;1637079148933293772 -->
<g id="edge7" class="edge">
<title>&#45;5410179388997738017&#45;&gt;&#45;1637079148933293772</title>
<path fill="none" stroke="black" d="M54.4,-18C62.39,-18 71.31,-18 79.82,-18"/>
<polygon fill="black" stroke="black" points="79.92,-21.5 89.92,-18 79.92,-14.5 79.92,-21.5"/>
</g>
</g>
</svg>
