<svg width="32" height="32" viewBox="0 0 32 32" fill="none" xmlns="http://www.w3.org/2000/svg">
<path opacity="0.34" d="M25.0512 25.0512C22.6507 27.4516 19.395 28.8002 16.0002 28.8002C12.6054 28.8002 9.34969 27.4516 6.94923 25.0512C4.54876 22.6507 3.2002 19.395 3.2002 16.0002C3.2002 12.6054 4.54876 9.34969 6.94923 6.94923C9.34969 4.54876 12.6054 3.2002 16.0002 3.2002C19.395 3.2002 22.6507 4.54876 25.0512 6.94923C27.4516 9.34969 28.8002 12.6054 28.8002 16.0002C28.8002 19.395 27.4516 22.6507 25.0512 25.0512Z" fill="#E9FF5C"/>
<path fill-rule="evenodd" clip-rule="evenodd" d="M21.9314 13.9315C22.2229 13.6297 22.3841 13.2256 22.3805 12.8061C22.3768 12.3866 22.2086 11.9853 21.9119 11.6886C21.6153 11.3919 21.214 11.2237 20.7945 11.22C20.3749 11.2164 19.9708 11.3777 19.669 11.6691L14.4002 16.9379L12.3314 14.8691C12.0296 14.5777 11.6255 14.4164 11.206 14.42C10.7865 14.4237 10.3852 14.5919 10.0885 14.8886C9.79185 15.1853 9.62358 15.5866 9.61993 16.0061C9.61629 16.4256 9.77756 16.8297 10.069 17.1315L13.269 20.3315C13.5691 20.6315 13.9759 20.8 14.4002 20.8C14.8245 20.8 15.2314 20.6315 15.5314 20.3315L21.9314 13.9315Z" fill="#DFF64D"/>
</svg>