<svg width="32" height="32" viewBox="0 0 32 32" fill="none" xmlns="http://www.w3.org/2000/svg">
<path opacity="0.34" fill-rule="evenodd" clip-rule="evenodd" d="M3.26112 9.65701C3.33787 8.69234 4.1713 8.00105 5.1342 7.90461C8.56529 7.56098 11.84 6.2956 14.61 4.24436C15.4304 3.63677 16.5694 3.63684 17.3898 4.24454C20.1605 6.29687 23.4364 7.56284 26.8688 7.90637C27.8303 8.0026 28.6627 8.69209 28.7391 9.6554C28.7795 10.1657 28.7999 10.6816 28.7999 11.2016C28.7999 19.3119 23.7704 26.2477 16.6622 29.0608C16.2368 29.2291 15.7631 29.2291 15.3378 29.0607C8.22956 26.2461 3.19995 19.3103 3.19995 11.2C3.19995 10.6804 3.22063 10.1659 3.26112 9.65701Z" fill="#E9FF5C"/>
<path d="M22.3802 12.8058C22.3839 13.2253 22.2226 13.6295 21.9312 13.9313L15.5312 20.3313C15.2311 20.6312 14.8242 20.7997 14.4 20.7997C13.9757 20.7997 13.5688 20.6312 13.2688 20.3313L10.0688 17.1313C9.77732 16.8295 9.61604 16.4253 9.61969 16.0058C9.62333 15.5863 9.79161 15.185 10.0883 14.8884C10.3849 14.5917 10.7862 14.4234 11.2057 14.4198C11.6252 14.4161 12.0294 14.5774 12.3312 14.8689L14.4 16.9377L19.6688 11.6689C19.9705 11.3774 20.3747 11.2161 20.7942 11.2198C21.2137 11.2234 21.615 11.3917 21.9117 11.6884C22.2083 11.985 22.3766 12.3863 22.3802 12.8058Z" fill="#DFF64D"/>
</svg>