<svg width="32" height="32" viewBox="0 0 32 32" fill="none" xmlns="http://www.w3.org/2000/svg">
<path opacity="0.34" d="M4.80005 19.2V24C4.80005 26.6512 9.81445 28.7999 16 28.7999C22.1857 28.7999 27.2001 26.6512 27.2001 24V19.2C27.2001 21.8512 22.1857 24 16 24C9.81445 24 4.80005 21.8512 4.80005 19.2Z" fill="#E9FF5C"/>
<path opacity="0.34" d="M4.80005 11.2V16C4.80005 18.6512 9.81445 20.8 16 20.8C22.1857 20.8 27.2001 18.6512 27.2001 16V11.2C27.2001 13.8512 22.1857 16 16 16C9.81445 16 4.80005 13.8512 4.80005 11.2Z" fill="#E9FF5C"/>
<path d="M27.2001 7.99995C27.2001 10.6512 22.1857 12.8 16 12.8C9.81445 12.8 4.80005 10.6512 4.80005 7.99995C4.80005 5.34875 9.81445 3.19995 16 3.19995C22.1857 3.19995 27.2001 5.34875 27.2001 7.99995Z" fill="#DFF64D"/>
</svg>