<svg width="32" height="32" viewBox="0 0 32 32" fill="none" xmlns="http://www.w3.org/2000/svg">
<path opacity="0.34" fill-rule="evenodd" clip-rule="evenodd" d="M16 28.7999C19.3947 28.7999 22.6505 27.4514 25.0509 25.0509C27.4514 22.6505 28.7999 19.3947 28.7999 16C28.7999 12.6052 27.4514 9.34945 25.0509 6.94898C22.6505 4.54852 19.3947 3.19995 16 3.19995C12.6052 3.19995 9.34945 4.54852 6.94898 6.94898C4.54852 9.34945 3.19995 12.6052 3.19995 16C3.19995 19.3947 4.54852 22.6505 6.94898 25.0509C9.34945 27.4514 12.6052 28.7999 16 28.7999ZM6.93115 12.8432C7.52522 11.1419 8.58521 9.64172 9.99035 8.51355C10.4192 9.16795 11.1584 9.59995 12 9.59995C12.6365 9.59995 13.2469 9.85281 13.697 10.3029C14.1471 10.753 14.4 11.3634 14.4 12V12.8C14.4 13.6486 14.7371 14.4626 15.3372 15.0627C15.9373 15.6628 16.7513 16 17.6 16C18.4486 16 19.2626 15.6628 19.8627 15.0627C20.4628 14.4626 20.7999 13.6486 20.7999 12.8C20.7997 12.0838 21.0397 11.3883 21.4814 10.8247C21.9232 10.2611 22.5413 9.86195 23.2367 9.69115C24.7636 11.4378 25.6035 13.68 25.5999 16C25.5999 16.544 25.5551 17.08 25.4671 17.6H24C23.1513 17.6 22.3373 17.9371 21.7372 18.5372C21.1371 19.1373 20.7999 19.9513 20.7999 20.7999V24.3151C19.3412 25.1592 17.6852 25.6024 16 25.5999V22.4C16 21.5513 15.6628 20.7373 15.0627 20.1372C14.4626 19.5371 13.6486 19.2 12.8 19.2C11.9513 19.2 11.1373 18.8628 10.5372 18.2627C9.93709 17.6626 9.59995 16.8486 9.59995 16C9.60023 15.2431 9.33228 14.5107 8.84368 13.9328C8.35508 13.3548 7.67745 12.9688 6.93115 12.8432Z" fill="#E9FF5C"/>
<path d="M25.0509 6.94898C22.6504 4.54852 19.3947 3.19995 15.9999 3.19995C13.0823 3.19995 10.2673 4.19608 8.0098 6C7.41533 7.16625 10.8892 9.59995 11.9999 9.59995C12.6364 9.59995 13.2469 9.85281 13.697 10.3029C14.1471 10.753 14.3999 11.3634 14.3999 12V12.8C14.3999 13.6486 14.7371 14.4626 15.3372 15.0627C15.9373 15.6628 16.7512 16 17.5999 16C18.4486 16 19.2625 15.6628 19.8627 15.0627C20.4628 14.4626 20.7999 13.6486 20.7999 12.8C20.7997 12.0838 21.0763 11.533 21.4814 10.8247C22.5135 9.02 26.1863 8.24312 26 8.00995C25.7049 7.64072 25.3883 7.2864 25.0509 6.94898Z" fill="#DFF64D"/>
</svg>